<svg xmlns="http://www.w3.org/2000/svg" xmlns:svg="http://www.w3.org/2000/svg" xmlns:xlink="http://www.w3.org/1999/xlink" id="SVGRoot" width="64" height="64" version="1.1" viewBox="0 0 64 64"><defs id="defs2701"><linearGradient id="linearGradient3316"><stop style="stop-color:#12fafd;stop-opacity:1" id="stop3312" offset="0"/><stop style="stop-color:#ed3cfe;stop-opacity:1" id="stop3314" offset="1"/></linearGradient><linearGradient id="linearGradient3286" x1="1.209" x2="63.012" y1="1.471" y2="62.901" gradientUnits="userSpaceOnUse" xlink:href="#linearGradient3316"/><linearGradient id="linearGradient3288" x1="3.016" x2="61.803" y1="2.395" y2="61.181" gradientTransform="translate(-0.1767767,-1.767767)" gradientUnits="userSpaceOnUse" xlink:href="#linearGradient3316"/><linearGradient id="linearGradient3290" x1="3.016" x2="61.803" y1="2.395" y2="61.181" gradientUnits="userSpaceOnUse" xlink:href="#linearGradient3316"/><linearGradient id="linearGradient3292" x1="3.016" x2="61.032" y1="2.395" y2="60.376" gradientUnits="userSpaceOnUse" xlink:href="#linearGradient3316"/></defs><metadata id="metadata2704"/><g id="layer1"><path style="fill:none;stroke:url(#linearGradient3290);stroke-width:3;stroke-linecap:round;stroke-linejoin:round;stroke-opacity:1;stroke-miterlimit:4;stroke-dasharray:none" id="path3270" d="m 56.170795,51.448855 c 0,0 2.298097,4.021669 3.093592,5.480077 0.795495,1.458408 1.767767,3.447146 1.767767,3.447146 0,0 -8.485281,-4.507806 -10.871767,-5.656855 -2.386485,-1.149048 -4.331029,-1.988737 -6.629126,-2.740038 -2.298097,-0.751301 -5.126524,-1.325826 -5.126524,-1.325826"/><path style="fill:none;stroke:url(#linearGradient3286);stroke-width:3;stroke-linecap:round;stroke-linejoin:round;stroke-miterlimit:4;stroke-dasharray:none;stroke-opacity:1" id="path3272" d="m 26.162951,50.653359 c 0,0 -4.949748,0.795496 -10.032078,3.181981 -5.08233,2.386485 -4.507805,2.077126 -6.5849314,3.181981 C 7.4688154,58.122175 3.21875,60.484375 3.21875,60.484375 3.21875,60.484375 12.3125,44.3125 16,37.25 19.6875,30.1875 23.5625,22.3125 23.5625,22.3125"/><path style="fill:none;stroke:url(#linearGradient3292);stroke-width:3;stroke-linecap:round;stroke-linejoin:round;stroke-miterlimit:4;stroke-dasharray:none;stroke-opacity:1" id="path3276" d="m 25.583985,18.267914 c 0,0 2.081568,-4.295719 3.230616,-7.256728 1.149049,-2.9610101 3.314563,-8.4410877 3.314563,-8.4410877 0,0 2.872622,6.8942911 4.817165,11.2695147 1.944544,4.375223 7.733981,15.733126 7.733981,15.733126 0,0 4.552,8.883028 6.098796,11.667261 1.546796,2.784233 3.233757,5.650573 3.233757,5.650573"/><path style="fill:none;stroke:url(#linearGradient3288);stroke-width:3;stroke-linecap:round;stroke-linejoin:round;stroke-miterlimit:4;stroke-dasharray:none;stroke-opacity:1" id="path3278" d="m 26.275926,46.63169 c 0,0 -0.90847,-2.828428 -0.15717,-6.010408 0.751301,-3.181981 2.973384,-4.968053 3.798019,-5.477397 1.033891,-0.638594 2.259067,-0.723912 3.239809,-0.449754 1.361491,0.380592 2.079117,1.077626 3.038444,2.21484 0.71921,0.852572 1.944544,2.916816 2.253903,5.480078 0.255552,2.117432 -0.479473,4.343973 -0.479473,4.343973"/></g></svg>