<svg xmlns="http://www.w3.org/2000/svg" xmlns:xlink="http://www.w3.org/1999/xlink" style="isolation:isolate" width="64" height="64" viewBox="0 0 48 48"><linearGradient id="_lgradient_24" x1="0" x2="1" y1=".5" y2=".509" gradientTransform="matrix(44.66,0,0,44,1.67,2)" gradientUnits="userSpaceOnUse"><stop offset="34.941%" stop-opacity="1" style="stop-color:#b2e56b"/><stop offset="53.849%" stop-opacity="1" style="stop-color:#c2e964"/><stop offset="90.405%" stop-opacity="1" style="stop-color:#ecf451"/><stop offset="100%" stop-opacity="1" style="stop-color:#faf74b"/></linearGradient><path fill="url(#_lgradient_24)" fill-rule="evenodd" d="M 7.79 17.11 L 7.79 17.11 C 8.281 18.092 7.88 19.291 6.895 19.785 L 6.895 19.785 C 5.91 20.279 4.707 19.878 4.21 18.89 L 4.21 18.89 L 1.72 13.91 L 8.87 2 L 21.13 2 L 27.13 12 L 39.13 12 L 46.33 24 L 39.13 36 L 24.76 36 L 22.21 30.89 L 22.21 30.89 C 21.719 29.908 22.12 28.709 23.105 28.215 L 23.105 28.215 C 24.09 27.721 25.293 28.122 25.79 29.11 L 25.79 29.11 L 27.24 32 L 36.87 32 L 41.67 24 L 36.87 16 L 24.87 16 L 18.87 6 L 11.13 6 L 6.28 14.09 L 7.79 17.11 Z M 21.4 38.8 L 21.4 38.8 C 22.062 37.917 23.317 37.738 24.2 38.4 L 24.2 38.4 C 25.083 39.062 25.262 40.317 24.6 41.2 L 24.6 41.2 L 21 46 L 8.87 46 L 1.67 34 L 8.87 22 L 18.76 22 L 20.21 19.11 L 20.21 19.11 C 20.707 18.122 21.91 17.721 22.895 18.215 L 22.895 18.215 C 23.88 18.709 24.281 19.908 23.79 20.89 L 23.79 20.89 L 21.24 26 L 11.13 26 L 6.33 34 L 11.13 42 L 19 42 L 21.4 38.8 Z"/></svg>