<?xml version="1.0" encoding="UTF-8" standalone="no"?>
<!-- Created with Inkscape (http://www.inkscape.org/) -->

<svg
   xmlns:dc="http://purl.org/dc/elements/1.1/"
   xmlns:cc="http://creativecommons.org/ns#"
   xmlns:rdf="http://www.w3.org/1999/02/22-rdf-syntax-ns#"
   xmlns:svg="http://www.w3.org/2000/svg"
   xmlns="http://www.w3.org/2000/svg"
   xmlns:xlink="http://www.w3.org/1999/xlink"
   xmlns:sodipodi="http://sodipodi.sourceforge.net/DTD/sodipodi-0.dtd"
   xmlns:inkscape="http://www.inkscape.org/namespaces/inkscape"
   width="64px"
   height="64px"
   viewBox="0 0 64 64"
   version="1.1"
   id="SVGRoot"
   inkscape:version="0.92.4 5da689c313, 2019-01-14"
   sodipodi:docname="lutris.svg">
  <defs
     id="defs1545">
    <linearGradient
       inkscape:collect="always"
       id="linearGradient2118">
      <stop
         style="stop-color:#f1d100;stop-opacity:1"
         offset="0"
         id="stop2114" />
      <stop
         style="stop-color:#c602ac;stop-opacity:1"
         offset="1"
         id="stop2116" />
    </linearGradient>
    <radialGradient
       inkscape:collect="always"
       xlink:href="#linearGradient2118"
       id="radialGradient2122"
       cx="35.842953"
       cy="33.296383"
       fx="35.842953"
       fy="33.296383"
       r="31.28492"
       gradientTransform="matrix(1.4674858,-0.01130111,0.00877055,1.1388837,-17.578428,-4.2192572)"
       gradientUnits="userSpaceOnUse" />
  </defs>
  <sodipodi:namedview
     id="base"
     pagecolor="#ffffff"
     bordercolor="#666666"
     borderopacity="1.0"
     inkscape:pageopacity="0.0"
     inkscape:pageshadow="2"
     inkscape:zoom="5.6568542"
     inkscape:cx="19.825307"
     inkscape:cy="57.624824"
     inkscape:document-units="px"
     inkscape:current-layer="layer1"
     showgrid="false"
     inkscape:window-width="1920"
     inkscape:window-height="1003"
     inkscape:window-x="0"
     inkscape:window-y="0"
     inkscape:window-maximized="1"
     inkscape:grid-bbox="true" />
  <metadata
     id="metadata1548">
    <rdf:RDF>
      <cc:Work
         rdf:about="">
        <dc:format>image/svg+xml</dc:format>
        <dc:type
           rdf:resource="http://purl.org/dc/dcmitype/StillImage" />
        <dc:title></dc:title>
      </cc:Work>
    </rdf:RDF>
  </metadata>
  <g
     inkscape:label="Layer 1"
     inkscape:groupmode="layer"
     id="layer1">
    <path
       style="fill:none;stroke:url(#radialGradient2122);stroke-width:5;stroke-linecap:butt;stroke-linejoin:round;stroke-miterlimit:4;stroke-dasharray:none;stroke-opacity:1;paint-order:normal"
       d="m 58.955028,26.788506 c 0,0 -2.12132,1.944543 -5.922019,0.618718 -3.800699,-1.325825 -9.722719,-3.18198 -9.722719,-3.18198 0,0 1.060661,0.265165 0.707107,1.59099 -0.353553,1.325825 -1.325825,2.65165 -2.740039,1.59099 -1.414213,-1.06066 -3.005203,-3.623922 -3.535533,-3.800699 -0.530331,-0.176777 -6.010408,0.353553 -7.247845,0.707107 -1.237437,0.353553 -4.065864,1.944544 -4.065864,1.944544 0,0 0.08839,0.795495 0.53033,1.502601 0.441942,0.707107 1.679379,2.386486 1.414214,2.828428 -0.265165,0.441941 -1.237437,2.209708 -2.740039,1.502601 -1.502602,-0.707106 -3.623922,-2.563262 -4.154252,-2.12132 -0.530331,0.441942 -2.931981,2.814944 -3.270369,5.656854 -0.08839,1.060661 -1.314196,7.31582 1.944543,10.341437 3.714587,3.448854 12.727633,6.537472 19.710602,5.922019 6.955791,-0.613057 10.286548,-1.717246 12.041342,-2.927538 1.400168,-0.965704 4.40032,-3.430766 5.194386,-5.469355 0.162568,-0.417357 1.679379,-2.872621 2.032932,-6.850097 0,0 -1.237437,7.822369 -3.093592,10.915961 -1.856156,3.093592 -5.715675,9.492325 -13.435029,12.285981 C 37.004922,61.871775 26.688443,61.878767 15.588519,55.851267 5.8569275,50.566801 3.8984661,41.484283 3.7123106,35.185399 3.4468863,26.204322 6.1871843,18.921943 10.783379,14.148972 15.379573,9.3760011 23.864854,4.2494769 32.703689,4.6030303 c 8.838835,0.3535534 10.871767,3.0935922 10.871767,3.0935922 0,0 0.353553,-1.0606602 0.883883,-1.5909903 0.53033,-0.53033 2.65165,1.6793787 2.65165,1.6793787 0,0 2.740039,-0.5303301 5.568466,0.3535533 2.828427,0.8838835 6.45235,3.2703688 6.717515,4.4194178 0.265165,1.149048 -0.08839,3.535534 0.353553,4.24264 0.441942,0.707107 0.618719,3.623923 0.883884,4.154253 0.265165,0.53033 0.795495,1.856155 0.353553,3.18198 -0.441942,1.325825 -2.032932,2.651651 -2.032932,2.651651 z"
       id="path1569"
       inkscape:connector-curvature="0"
       sodipodi:nodetypes="cscssssccssscsssscsssssscscsscssc" />
  </g>
</svg>
