<?xml version="1.0" encoding="UTF-8" standalone="no"?>
<!-- Created with Inkscape (http://www.inkscape.org/) -->

<svg
   xmlns:dc="http://purl.org/dc/elements/1.1/"
   xmlns:cc="http://creativecommons.org/ns#"
   xmlns:rdf="http://www.w3.org/1999/02/22-rdf-syntax-ns#"
   xmlns:svg="http://www.w3.org/2000/svg"
   xmlns="http://www.w3.org/2000/svg"
   xmlns:xlink="http://www.w3.org/1999/xlink"
   xmlns:sodipodi="http://sodipodi.sourceforge.net/DTD/sodipodi-0.dtd"
   xmlns:inkscape="http://www.inkscape.org/namespaces/inkscape"
   width="64px"
   height="64px"
   viewBox="0 0 64 64"
   version="1.1"
   id="SVGRoot"
   inkscape:version="0.92.4 5da689c313, 2019-01-14"
   sodipodi:docname="multimc.svg">
  <defs
     id="defs5276">
    <linearGradient
       inkscape:collect="always"
       id="linearGradient5881">
      <stop
         style="stop-color:#4cb831;stop-opacity:1"
         offset="0"
         id="stop5877" />
      <stop
         style="stop-color:#ad3724;stop-opacity:1"
         offset="1"
         id="stop5879" />
    </linearGradient>
    <linearGradient
       inkscape:collect="always"
       xlink:href="#linearGradient5881"
       id="linearGradient5851"
       x1="2.8446149"
       y1="2.6745578"
       x2="62.651384"
       y2="62.481327"
       gradientUnits="userSpaceOnUse"
       gradientTransform="matrix(0.97465699,0,0,0.98525455,0.12303118,0.17101739)" />
    <linearGradient
       inkscape:collect="always"
       xlink:href="#linearGradient5881"
       id="linearGradient5869"
       x1="0.94014692"
       y1="1.4039065"
       x2="63.609669"
       y2="63.631485"
       gradientUnits="userSpaceOnUse"
       gradientTransform="matrix(0.97465699,0,0,0.98525455,0.12303118,0.17101739)" />
    <linearGradient
       inkscape:collect="always"
       xlink:href="#linearGradient5881"
       id="linearGradient5893"
       x1="1.0580845"
       y1="0.92990303"
       x2="63.317039"
       y2="63.188858"
       gradientUnits="userSpaceOnUse"
       gradientTransform="matrix(1.0339548,0,0,1.0060846,0.13805961,-0.07071431)" />
  </defs>
  <sodipodi:namedview
     id="base"
     pagecolor="#ffffff"
     bordercolor="#666666"
     borderopacity="1.0"
     inkscape:pageopacity="0.0"
     inkscape:pageshadow="2"
     inkscape:zoom="8"
     inkscape:cx="13.383484"
     inkscape:cy="40.212526"
     inkscape:document-units="px"
     inkscape:current-layer="layer1"
     showgrid="false"
     inkscape:window-width="1920"
     inkscape:window-height="1003"
     inkscape:window-x="0"
     inkscape:window-y="0"
     inkscape:window-maximized="1"
     inkscape:grid-bbox="true"
     showguides="false" />
  <metadata
     id="metadata5279">
    <rdf:RDF>
      <cc:Work
         rdf:about="">
        <dc:format>image/svg+xml</dc:format>
        <dc:type
           rdf:resource="http://purl.org/dc/dcmitype/StillImage" />
        <dc:title></dc:title>
      </cc:Work>
    </rdf:RDF>
  </metadata>
  <g
     inkscape:label="Layer 1"
     inkscape:groupmode="layer"
     id="layer1">
    <path
       style="fill:none;stroke:url(#linearGradient5851);stroke-width:4.9;stroke-linecap:round;stroke-linejoin:round;stroke-miterlimit:4;stroke-dasharray:none;stroke-opacity:1"
       d="m 32.170206,3.1386436 h 22.14012 c 0.360746,0.00543 2.584448,0 4.652008,2.6125506 2.06756,2.6125506 1.696046,4.2127375 1.722966,4.7025908 v 44.587531 c 0,0.767436 -0.344593,2.699636 -1.722966,4.092997 -1.378373,1.393359 -3.300557,2.242439 -4.135119,2.26421 H 9.2547532 C 8.3071218,61.327766 6.4980069,60.527672 5.2057822,59.047227 3.9135573,57.566781 3.4397415,56.227849 3.3858988,55.444084 c -0.010769,-0.468082 0.010768,-45.164468 0.010768,-45.164468 0,0 -0.020105,-2.9173334 1.6520471,-4.713157 C 6.7817447,3.7052541 7.6716326,3.1881143 9.1357582,3.1463409 Z"
       id="path5300"
       inkscape:connector-curvature="0"
       sodipodi:nodetypes="ccsccsccsccscc" />
    <path
       style="fill:none;stroke:url(#linearGradient5869);stroke-width:4.89970732;stroke-linecap:round;stroke-linejoin:round;stroke-miterlimit:4;stroke-dasharray:none;stroke-opacity:1"
       d="m 29.513409,30.201603 c 1.93169,2.377878 5.557324,8.619809 8.885775,10.284323 3.328452,1.664514 7.167716,1.519463 9.898348,0.885598 2.664082,-0.618416 5.708981,-3.531794 6.503099,-6.17943 0.927915,-3.093724 -0.294118,-6.268602 -2.790457,-8.319522 -2.536055,-2.083549 -7.162115,-3.239859 -11.14437,-1.753685 -3.737627,1.39488 -7.459296,6.271655 -8.231973,7.401147 -0.772675,1.129491 -3.120422,5.855524 -6.597466,7.787551 -3.462455,1.92392 -6.300283,2.021197 -8.915495,1.36728 -2.615212,-0.653917 -6.289985,-2.887786 -7.2512689,-5.885248 -1.0104227,-3.15069 -0.475493,-5.29078 1.2481689,-7.311977 1.723663,-2.021196 3.744509,-3.774881 7.60789,-3.804605 2.259307,-0.01738 4.754929,0.535023 6.300283,1.605068 1.545352,1.070045 2.674649,1.664515 4.487466,3.9235 z"
       id="path5853"
       inkscape:connector-curvature="0"
       sodipodi:nodetypes="cssssssssssssc" />
    <path
       style="fill:none;stroke:url(#linearGradient5893);stroke-width:2.64342475;stroke-linecap:round;stroke-linejoin:round;stroke-miterlimit:4;stroke-dasharray:none;stroke-opacity:1"
       d="m 8.4096987,10.304534 c 0,0 12.4720783,2.578091 24.7502913,2.640972 12.278214,0.06288 23.587095,-2.07505 23.587095,-2.07505"
       id="path5883"
       inkscape:connector-curvature="0" />
  </g>
</svg>
