<svg xmlns="http://www.w3.org/2000/svg" xmlns:svg="http://www.w3.org/2000/svg" xmlns:xlink="http://www.w3.org/1999/xlink" id="svg16" width="64" height="64" version="1.1" viewBox="0 0 48 48" style="isolation:isolate"><metadata id="metadata22"/><defs id="defs20"><linearGradient id="linearGradient860" x1="-.759" x2="46.899" y1="22.274" y2="23.128" gradientTransform="translate(-0.22504783)" gradientUnits="userSpaceOnUse" xlink:href="#_lgradient_9"/><linearGradient id="linearGradient862" x1=".764" x2="47.226" y1="24.075" y2="24.075" gradientTransform="translate(0.07545889,-0.63525066)" gradientUnits="userSpaceOnUse" xlink:href="#_lgradient_9"/></defs><linearGradient id="_lgradient_9" x1="0" x2="1" y1=".5" y2=".5"><stop id="stop2" offset="0%" stop-color="#B2FEFA" stop-opacity="1"/><stop id="stop4" offset="98.261%" stop-color="#0ED2F7" stop-opacity="1"/></linearGradient><linearGradient id="_lgradient_10" x1="0" x2="1" y1=".5" y2=".5" gradientTransform="matrix(48,0,0,48,0,0)" gradientUnits="userSpaceOnUse"><stop id="stop9" offset="0%" stop-color="#B2FEFA" stop-opacity="1"/><stop id="stop11" offset="98.261%" stop-color="#0ED2F7" stop-opacity="1"/></linearGradient><path id="path14" fill="url(#_lgradient_10)" fill-rule="evenodd" d="M 19.1 16.684 L 19.1 16 C 19.1 15.448 19.548 15 20.1 15 L 22.1 15 C 22.652 15 23.1 15.448 23.1 16 L 23.1 16.684 L 23.1 37 C 23.1 38.104 22.204 39 21.1 39 L 21.1 39 C 19.996 39 19.1 38.104 19.1 37 L 19.1 16.684 L 19.1 16.684 Z M 28.9 30 L 28.9 31 C 28.9 31.552 28.452 32 27.9 32 L 25.9 32 C 25.348 32 24.9 31.552 24.9 31 L 24.9 30 L 24.9 10 C 24.9 8.896 25.796 8 26.9 8 L 26.9 8 C 28.004 8 28.9 8.896 28.9 10 L 28.9 30 L 28.9 30 Z M 30.22 43.01 L 30.22 43.01 C 31.269 42.668 32.398 43.241 32.74 44.29 L 32.74 44.29 C 33.082 45.339 32.509 46.468 31.46 46.81 L 31.46 46.81 C 29.06 47.6 26.55 48 24.03 48 C 15.68 48 7.9 43.66 3.54 36.54 C 1.23 32.78 0 28.44 0 24.03 C 0 15.68 4.34 7.9 11.46 3.54 C 15.22 1.23 19.55 0 23.97 0 C 32.32 0 40.1 4.34 44.46 11.46 C 46.77 15.22 48 19.55 48 23.97 C 48 29.61 46.02 35.08 42.41 39.41 L 42.41 39.41 C 41.698 40.254 40.432 40.366 39.585 39.66 L 39.585 39.66 C 38.738 38.954 38.628 37.69 39.34 36.84 L 39.34 36.84 C 42.35 33.23 44 28.68 44 23.97 C 44 20.3 42.98 16.69 41.05 13.55 C 37.41 7.62 30.93 4 23.97 4 C 20.29 4 16.69 5.02 13.55 6.95 C 7.62 10.59 4 17.07 4 24.03 C 4 27.7 5.02 31.31 6.95 34.45 C 10.59 40.38 17.07 44 24.03 44 C 26.13 44 28.22 43.67 30.22 43.01 Z"/><circle id="path829" cx="15.214" cy="23.182" r="5.932" fill="#96b2ae" fill-opacity="0" stroke="url(#linearGradient860)" stroke-dasharray="none" stroke-linecap="round" stroke-linejoin="round" stroke-miterlimit="4" stroke-opacity="1" stroke-width="3.887" opacity="1" paint-order="normal"/><circle id="path829-3" cx="32.786" cy="23.365" r="5.932" fill="#96b2ae" fill-opacity="0" stroke="url(#linearGradient862)" stroke-dasharray="none" stroke-linecap="round" stroke-linejoin="round" stroke-miterlimit="4" stroke-opacity="1" stroke-width="3.887" opacity="1" paint-order="normal" style="isolation:isolate"/></svg>