<svg xmlns="http://www.w3.org/2000/svg" xmlns:xlink="http://www.w3.org/1999/xlink" style="isolation:isolate" width="64" height="64" viewBox="0 0 48 48"><linearGradient id="_lgradient_21" x1="0" x2="1" y1=".5" y2=".5" gradientTransform="matrix(48,0,0,48,0,0)" gradientUnits="userSpaceOnUse"><stop offset="0%" stop-opacity="1" style="stop-color:#d300dc"/><stop offset="100%" stop-opacity="1" style="stop-color:#8700ff"/></linearGradient><path fill="url(#_lgradient_21)" d="M 16.79 26.16 L 18.63 26.95 L 17.05 30.63 L 15.21 29.84 L 2.757 24.502 C 1.236 23.85 0 21.976 0 20.32 L 0 7 C 0 3.137 3.137 0 7 0 L 41 0 C 44.863 0 48 3.137 48 7 L 48 41 C 48 44.863 44.863 48 41 48 L 7 48 C 3.137 48 0 44.863 0 41 L 0 32.23 C 0 29.47 2.126 27.938 4.744 28.809 L 14.63 32.1 L 16.53 32.74 L 15.26 36.53 L 13.37 35.9 L 6.845 33.721 C 5.275 33.196 4 34.114 4 35.77 L 4 39 C 4 41.76 6.24 44 9 44 L 39 44 C 41.76 44 44 41.76 44 39 L 44 9 C 44 6.24 41.76 4 39 4 L 9 4 C 6.24 4 4 6.24 4 9 L 4 19.68 C 4 20.232 4.412 20.856 4.919 21.074 L 16.79 26.16 Z"/><linearGradient id="_lgradient_22" x1="0" x2="1" y1=".5" y2=".5" gradientTransform="matrix(10.6,0,0,15.1,18.95,12.95)" gradientUnits="userSpaceOnUse"><stop offset="0%" stop-opacity="1" style="stop-color:#d300dc"/><stop offset="100%" stop-opacity="1" style="stop-color:#8700ff"/></linearGradient><path fill="url(#_lgradient_22)" d="M 26.21 14.24 L 26.97 12.95 L 29.55 14.47 L 28.79 15.76 L 22.29 26.76 L 21.53 28.05 L 18.95 26.53 L 19.71 25.24 L 26.21 14.24 Z"/><linearGradient id="_lgradient_23" x1="0" x2="1" y1=".5" y2=".5" gradientTransform="matrix(13.74,0,0,14.03,22.88,20.09)" gradientUnits="userSpaceOnUse"><stop offset="0%" stop-opacity="1" style="stop-color:#d300dc"/><stop offset="100%" stop-opacity="1" style="stop-color:#8700ff"/></linearGradient><path fill="url(#_lgradient_23)" d="M 33.42 21.16 L 34.47 20.09 L 36.62 22.18 L 35.58 23.25 L 26.08 33.04 L 26.08 33.04 C 25.5 33.636 24.548 33.652 23.955 33.075 L 23.955 33.075 C 23.362 32.498 23.346 31.551 23.92 30.96 L 23.92 30.96 L 33.42 21.16 Z"/><linearGradient id="_lgradient_24" x1="0" x2="1" y1=".5" y2=".5"><stop offset="0%" stop-opacity="1" style="stop-color:#d300dc"/><stop offset="100%" stop-opacity="1" style="stop-color:#8700ff"/></linearGradient><circle cx="34.5" cy="15" r="6.5" fill="none" stroke="url(#_lgradient_24)" stroke-linecap="square" stroke-linejoin="miter" stroke-miterlimit="3" stroke-width="3" vector-effect="non-scaling-stroke"/><linearGradient id="_lgradient_25" x1="0" x2="1" y1=".5" y2=".5"><stop offset="0%" stop-opacity="1" style="stop-color:#d300dc"/><stop offset="100%" stop-opacity="1" style="stop-color:#8700ff"/></linearGradient><circle cx="20" cy="32.472" r="5" fill="none" stroke="url(#_lgradient_25)" stroke-linecap="square" stroke-linejoin="miter" stroke-miterlimit="3" stroke-width="3" vector-effect="non-scaling-stroke"/><linearGradient id="_lgradient_26" x1="0" x2="1" y1=".5" y2=".5" gradientTransform="matrix(6,0,0,6,31.5,12)" gradientUnits="userSpaceOnUse"><stop offset="0%" stop-opacity="1" style="stop-color:#d300dc"/><stop offset="100%" stop-opacity="1" style="stop-color:#8700ff"/></linearGradient><circle cx="34.5" cy="15" r="3" fill="url(#_lgradient_26)" vector-effect="non-scaling-stroke"/><linearGradient id="_lgradient_27" x1="0" x2="1" y1=".5" y2=".5" gradientTransform="matrix(4,0,0,4,18,30.472)" gradientUnits="userSpaceOnUse"><stop offset="0%" stop-opacity="1" style="stop-color:#d300dc"/><stop offset="100%" stop-opacity="1" style="stop-color:#8700ff"/></linearGradient><circle cx="20" cy="32.472" r="2" fill="url(#_lgradient_27)" vector-effect="non-scaling-stroke"/></svg>