<svg xmlns="http://www.w3.org/2000/svg" xmlns:xlink="http://www.w3.org/1999/xlink" style="isolation:isolate" width="64" height="64" viewBox="0 0 48 48"><linearGradient id="_lgradient_5" x1=".543" x2=".52" y1="-.266" y2=".983" gradientTransform="matrix(5,0,0,7.5,21.5,31.5)" gradientUnits="userSpaceOnUse"><stop offset="3.043%" stop-opacity="1" style="stop-color:#a67cf3"/><stop offset="98.696%" stop-opacity="1" style="stop-color:#584e7b"/></linearGradient><path fill="url(#_lgradient_5)" d="M 21.5 31.5 L 26.5 31.5 L 26.5 39 L 21.5 39 L 21.5 31.5 Z"/><linearGradient id="_lgradient_6" x1=".543" x2=".52" y1="-.266" y2=".983" gradientTransform="matrix(32.5,0,0,5,7.75,36.5)" gradientUnits="userSpaceOnUse"><stop offset="3.043%" stop-opacity="1" style="stop-color:#a67cf3"/><stop offset="98.696%" stop-opacity="1" style="stop-color:#584e7b"/></linearGradient><path fill="url(#_lgradient_6)" d="M 7.75 36.5 L 40.25 36.5 L 40.25 41.5 L 7.75 41.5 L 7.75 36.5 Z"/><linearGradient id="_lgradient_7" x1="0" x2="1" y1=".5" y2=".5" gradientTransform="matrix(45,0,0,10,1.5,34)" gradientUnits="userSpaceOnUse"><stop offset="0%" stop-opacity="1" style="stop-color:#ffe53b"/><stop offset="98.696%" stop-opacity="1" style="stop-color:#ff005b"/></linearGradient><path fill="url(#_lgradient_7)" fill-rule="evenodd" d="M 1.5 39 C 1.5 36.24 3.74 34 6.5 34 C 9.26 34 11.5 36.24 11.5 39 C 11.5 41.76 9.26 44 6.5 44 C 3.74 44 1.5 41.76 1.5 39 L 1.5 39 Z M 19 39 C 19 36.24 21.24 34 24 34 C 26.76 34 29 36.24 29 39 C 29 41.76 26.76 44 24 44 C 21.24 44 19 41.76 19 39 L 19 39 Z M 36.5 39 C 36.5 36.24 38.74 34 41.5 34 C 44.26 34 46.5 36.24 46.5 39 C 46.5 41.76 44.26 44 41.5 44 C 38.74 44 36.5 41.76 36.5 39 Z"/><linearGradient id="_lgradient_8" x1="0" x2="1" y1=".5" y2=".5" gradientTransform="matrix(27.5,0,0,27.5,10.25,4)" gradientUnits="userSpaceOnUse"><stop offset="0%" stop-opacity="1" style="stop-color:#f7f206"/><stop offset="97.826%" stop-opacity="1" style="stop-color:#ffbb24"/></linearGradient><path fill="url(#_lgradient_8)" d="M 13.119 4 C 11.529 4 10.25 5.279 10.25 6.869 L 10.25 28.631 C 10.25 30.221 11.529 31.5 13.119 31.5 L 34.881 31.5 C 36.471 31.5 37.75 30.221 37.75 28.631 L 37.75 6.869 C 37.75 5.279 36.471 4 34.881 4 L 13.119 4 Z M 16.5 10.25 L 31.5 10.25 L 31.5 25.25 L 16.5 25.25 L 16.5 10.25 Z"/></svg>