<svg xmlns="http://www.w3.org/2000/svg" xmlns:svg="http://www.w3.org/2000/svg" xmlns:xlink="http://www.w3.org/1999/xlink" id="svg5" version="1.1" viewBox="0 0 16 16"><metadata id="metadata9"/><defs id="defs3051"><linearGradient id="linearGradient823"><stop style="stop-color:#f7f206;stop-opacity:1" id="stop819" offset="0"/><stop style="stop-color:#ffbb24;stop-opacity:1" id="stop821" offset="1"/></linearGradient><style id="current-color-scheme" type="text/css">.ColorScheme-Text{color:#4d4d4d}</style><linearGradient id="linearGradient825" x1="2" x2="14" y1="8" y2="8" gradientUnits="userSpaceOnUse" xlink:href="#linearGradient823"/></defs><path style="fill:url(#linearGradient825);fill-opacity:1;stroke:none" id="rect4122" d="M 2 2 L 2 14 L 14 14 L 14 2 L 2 2 z M 3 3 L 13 3 L 13 12 L 13 13 L 3 13 L 3 12 L 3 3 z M 3 12 L 5 12 L 7 10 L 6 9 L 3 12 z M 13 12 L 10 9 L 7 12 L 13 12 z M 5.5 4 C 4.669 4 4 4.669 4 5.5 C 4 6.331 4.669 7 5.5 7 C 6.331 7 7 6.331 7 5.5 C 7 4.669 6.331 4 5.5 4 z" class="ColorScheme-Text"/></svg>