<svg xmlns="http://www.w3.org/2000/svg" xmlns:svg="http://www.w3.org/2000/svg" xmlns:xlink="http://www.w3.org/1999/xlink" id="svg6" version="1.1" viewBox="0 0 16 16"><metadata id="metadata10"/><defs id="defs3051"><linearGradient id="linearGradient821"><stop id="stop817" offset="0" stop-color="#00c6ff" stop-opacity="1"/><stop id="stop819" offset="1" stop-color="#0072ff" stop-opacity="1"/></linearGradient><style id="current-color-scheme" type="text/css">.ColorScheme-Text{color:#4d4d4d}</style><linearGradient id="linearGradient823" x1="2" x2="14" y1="8" y2="8" gradientUnits="userSpaceOnUse" xlink:href="#linearGradient821"/></defs><path id="path4" fill="url(#linearGradient823)" fill-opacity="1" stroke="none" d="M 2 2 L 2 14 L 14 14 L 14 2 L 2 2 z M 5 3 L 11 3 L 11 7 L 5 7 L 5 3 z M 3 4 L 4 4 L 4 5 L 3 5 L 3 4 z M 12 4 L 13 4 L 13 5 L 12 5 L 12 4 z M 3 7.5 L 4 7.5 L 4 8.5 L 3 8.5 L 3 7.5 z M 12 7.5 L 13 7.5 L 13 8.5 L 12 8.5 L 12 7.5 z M 5 9 L 11 9 L 11 13 L 5 13 L 5 9 z M 3 11 L 4 11 L 4 12 L 3 12 L 3 11 z M 12 11 L 13 11 L 13 12 L 12 12 L 12 11 z" class="ColorScheme-Text"/></svg>