<svg xmlns="http://www.w3.org/2000/svg" xmlns:svg="http://www.w3.org/2000/svg" xmlns:xlink="http://www.w3.org/1999/xlink" id="svg6" version="1.1" viewBox="0 0 16 16"><metadata id="metadata10"/><defs id="defs3051"><linearGradient id="linearGradient821"><stop id="stop817" offset="0" stop-color="#00ffd9" stop-opacity="1"/><stop id="stop819" offset="1" stop-color="#00ffb8" stop-opacity="1"/></linearGradient><style id="current-color-scheme" type="text/css">.ColorScheme-Text{color:#4d4d4d}</style><linearGradient id="linearGradient823" x1="2" x2="14" y1="8" y2="8" gradientUnits="userSpaceOnUse" xlink:href="#linearGradient821"/></defs><path id="path4" fill="url(#linearGradient823)" fill-opacity="1" stroke="none" d="M 5 2 L 5 4 L 5 10.275391 C 4.705 10.104292 4.3669285 10 4 10 C 2.8920048 10 2 10.892005 2 12 C 2 13.107995 2.8920048 14 4 14 C 5.1079952 14 6 13.107995 6 12 L 6 6 L 13 6 L 13 8.2753906 C 12.705 8.1042919 12.366929 8 12 8 C 10.892005 8 10 8.8920048 10 10 C 10 11.107995 10.892005 12 12 12 C 13.107995 12 14 11.107995 14 10 L 14 2 L 5 2 z M 6 4 L 13 4 L 13 5 L 6 5 L 6 4 z" class="ColorScheme-Text"/></svg>